<svg class="size-8 fill-current text-white dark:text-black" version="1.0" xmlns="http://www.w3.org/2000/svg" viewBox="0 0 1563.000000 1563.000000" style="fill: rgb(255, 255, 255) !important;"><g transform="translate(0.000000,1563.000000) scale(0.100000,-0.100000)" style="fill: rgb(255, 255, 255) !important;"><path d="M8768 10609 c-31 -52 -84 -143 -118 -204 -35 -60 -104 -180 -155&#10;-265 -51 -85 -134 -227 -185 -315 -141 -242 -508 -875 -635 -1095 -62 -107&#10;-200 -346 -307 -530 -108 -184 -236 -405 -286 -490 l-90 -155 437 -3 c240 -1&#10;441 -4 448 -6 8 -3 -4 -58 -39 -173 -27 -92 -87 -296 -133 -453 -89 -306 -330&#10;-1119 -451 -1524 -41 -137 -73 -254 -71 -259 2 -6 56 82 122 194 65 112 137&#10;236 161 274 23 39 73 124 111 190 65 113 115 198 328 560 49 83 110 186 135&#10;230 107 183 332 566 569 970 140 237 292 495 338 575 47 80 92 155 99 167 8&#10;12 14 25 14 28 0 3 -207 2 -460 -2 l-460 -6 19 64 c10 35 40 136 66 224 155&#10;532 262 894 290 990 188 637 316 1087 312 1098 -2 6 -28 -32 -59 -84z" style="fill: rgb(255, 255, 255) !important;"/><path d="M2690 10535 c-5 -13 -25 -114 -44 -222 -54 -307 -124 -702 -136 -762&#10;-5 -29 -10 -64 -10 -77 l0 -24 1898 0 c1043 -1 1929 -5 1968 -9 162 -19 258&#10;-77 285 -173 28 -96 8 -335 -42 -503 -53 -178 -126 -248 -309 -293 -57 -14&#10;-193 -17 -1067 -21 l-1002 -6 73 -110 c41 -60 159 -238 262 -395 507 -771&#10;1508 -2276 1532 -2302 14 -17 50 -18 488 -18 l474 0 14 23 c16 26 116 357 116&#10;385 0 19 -80 140 -339 512 -87 124 -224 322 -306 440 -82 118 -173 250 -203&#10;293 -30 43 -51 81 -48 84 3 3 48 10 101 14 123 10 203 25 230 43 12 8 42 50&#10;67 93 39 69 105 181 336 578 67 115 426 735 627 1085 65 113 132 233 148 268&#10;29 62 30 66 24 185 -6 153 -31 251 -97 384 -117 237 -307 400 -568 486 -212&#10;71 -70 67 -2380 67 l-2082 0 -10 -25z" style="fill: rgb(255, 255, 255) !important;"/><path d="M9707 10544 c-245 -38 -442 -115 -635 -247 -84 -58 -127 -104 -154&#10;-164 -23 -52 -90 -268 -163 -528 -47 -166 -147 -512 -260 -900 -19 -66 -35&#10;-123 -35 -127 0 -5 230 -8 510 -8 281 0 510 -3 510 -6 0 -3 -37 -67 -81 -143&#10;-300 -502 -420 -712 -417 -729 4 -23 134 -76 269 -111 238 -61 248 -61 1266&#10;-61 621 0 949 -4 989 -11 67 -12 134 -47 157 -82 43 -66 51 -221 18 -360 -26&#10;-110 -58 -172 -114 -224 -55 -50 -66 -57 -158 -85 l-74 -23 -1465 -5 -1465 -5&#10;-58 -95 c-93 -151 -589 -984 -594 -997 -4 -10 358 -13 1788 -13 1737 0 1798 1&#10;1922 20 219 34 379 82 539 163 293 148 488 341 632 623 82 161 142 383 186&#10;683 66 456 38 757 -96 1012 -113 215 -364 397 -654 473 -232 62 -185 59 -1295&#10;66 -756 4 -1029 9 -1056 18 -80 27 -138 86 -159 161 -16 57 -12 169 10 259 49&#10;204 137 287 345 329 83 16 202 18 1622 20 1468 4 1532 4 1538 22 3 10 25 123&#10;50 252 24 129 69 367 99 529 31 162 56 298 56 302 0 4 -784 7 -1742 7 -1420&#10;-1 -1759 -4 -1831 -15z" style="fill: rgb(255, 255, 255) !important;"/><path d="M3162 8846 c-5 -6 -16 -56 -25 -111 -23 -141 -124 -728 -207 -1210&#10;-39 -225 -100 -579 -136 -785 -35 -206 -93 -539 -128 -740 -35 -201 -61 -368&#10;-59 -372 2 -5 254 -8 559 -8 435 0 556 3 559 13 5 13 60 323 186 1047 44 256&#10;96 553 114 660 44 250 96 547 135 775 16 99 41 241 55 315 66 361 74 413 70&#10;420 -8 14 -1113 10 -1123 -4z" style="fill: rgb(255, 255, 255) !important;"/></g></svg>