<?xml version="1.0" encoding="UTF-8"?>
<svg version="1.1" xmlns="http://www.w3.org/2000/svg" width="1563" height="1563">
    <path d="M0 0 C4.11952726 0.01556201 8.23902723 0.00729755 12.35857153 0.00231326 C20.37321293 -0.00383483 28.38767789 0.01087886 36.40228555 0.03303888 C45.75084548 0.05797896 55.09937525 0.06065335 64.44796351 0.06244264 C81.11648711 0.06629676 97.78493212 0.08862083 114.45342016 0.12223208 C130.61488187 0.15479396 146.77630205 0.17594536 162.93779516 0.18375552 C163.93755903 0.18424101 164.9373229 0.1847265 165.96738264 0.1852267 C169.98648107 0.18715557 174.00557952 0.18906771 178.02467798 0.19094281 C193.4689521 0.19846401 208.91321949 0.21408218 224.35748534 0.23143941 C229.01668187 0.23667407 233.67587826 0.24160746 238.33507586 0.24580133 C248.11013188 0.25470617 257.88516816 0.26645976 267.66020676 0.28736737 C271.69917705 0.29597482 275.73813364 0.30305555 279.77711248 0.30588305 C283.46949511 0.30854395 287.16183815 0.31581555 290.85420492 0.32687352 C292.82985832 0.33161467 294.80552155 0.33147523 296.78118062 0.33119184 C298.5275454 0.3378786 298.5275454 0.3378786 300.30919027 0.34470046 C301.31801063 0.34648903 302.32683099 0.3482776 303.36622167 0.35012037 C305.87041235 0.47892153 305.87041235 0.47892153 308.87041235 1.47892153 C308.31785536 9.49598486 307.08455964 17.23207166 305.49541235 25.10392153 C305.04134725 27.408424 304.58822202 29.71311185 304.13603735 32.01798403 C303.91754126 33.12690005 303.69904516 34.23581606 303.47392797 35.3783356 C302.6901568 39.40499172 301.95259004 43.43818409 301.24541235 47.47892153 C301.07163061 48.46747134 301.07163061 48.46747134 300.89433813 49.47599185 C300.27763822 53.02223503 299.69261761 56.57241762 299.12822485 60.12735903 C297.93929188 67.56661678 296.62773674 74.74216997 294.48759985 81.97892153 C293.614889 85.51395284 293.43301177 89.02342167 293.1790061 92.64689028 C292.62654531 97.71694182 291.235452 102.57592199 289.87041235 107.47892153 C289.6590061 108.24204653 289.44759985 109.00517153 289.22978735 109.79142153 C288.78785518 111.35712408 288.33138165 112.91871776 287.87041235 114.47892153 C283.43152922 115.33574337 279.24527488 115.60051973 274.72737646 115.59244692 C273.68072738 115.59266729 273.68072738 115.59266729 272.61293387 115.59289211 C270.28092304 115.59219482 267.94899152 115.58435565 265.61699438 115.57657778 C263.93370943 115.57468514 262.25042391 115.57325416 260.5671382 115.57224715 C256.92636446 115.5691377 253.28561411 115.56290223 249.6448493 115.55427516 C243.79533662 115.54050454 237.94582902 115.53391351 232.09630346 115.5284363 C224.81381797 115.52115538 217.53133787 115.51227709 210.24885702 115.50127667 C187.53417692 115.4670267 164.8194903 115.46097458 142.10478735 115.45939028 C141.03561874 115.45929075 139.96645013 115.45919123 138.86488247 115.45908868 C102.47880475 115.45619766 66.09405679 115.49567897 29.70887518 115.76761782 C26.26828407 115.79126434 22.82770877 115.80920376 19.38707495 115.82535708 C14.08107981 115.85082067 8.77539057 115.89049125 3.46958685 115.9421078 C1.6026024 115.95832944 -0.26442824 115.97011243 -2.13147211 115.97653544 C-11.30278687 116.01197665 -20.27909459 116.42000643 -29.36152124 117.76090395 C-30.50675729 117.92194975 -30.50675729 117.92194975 -31.67512941 118.08624899 C-36.38834203 118.86211774 -40.20390805 120.27211207 -44.39487123 122.56666434 C-46.12958765 123.47892153 -46.12958765 123.47892153 -49.12958765 124.47892153 C-49.12958765 125.13892153 -49.12958765 125.79892153 -49.12958765 126.47892153 C-49.87208765 127.03579653 -50.61458765 127.59267153 -51.37958765 128.16642153 C-58.84608993 134.44507118 -60.91184777 144.79613541 -62.87958765 153.97892153 C-63.63842126 164.60259211 -64.13288028 174.30471087 -57.69208765 183.29142153 C-50.68175917 190.41545538 -40.51698436 190.904608 -31.07693326 190.99363863 C-28.49346466 190.995702 -25.9105031 190.97867725 -23.32709742 190.96134341 C-21.45121969 190.96353335 -19.57534336 190.96753629 -17.6994729 190.97319949 C-13.67755975 190.98172645 -9.65591431 190.97803341 -5.63401461 190.96477664 C0.75573682 190.94428647 7.14522396 190.95448741 13.53497839 190.96903384 C28.27333708 190.99798048 43.01161674 190.98740953 57.74998999 190.97633517 C71.22286946 190.966607 84.69560766 190.9656966 98.16846377 190.99621594 C103.46500977 191.00727321 108.76128333 191.0102339 114.05781889 190.99306643 C170.88003095 190.81382631 170.88003095 190.81382631 189.87041235 198.47892153 C192.21064116 198.95401732 194.49144496 199.23111243 196.87041235 199.47892153 C196.87041235 200.13892153 196.87041235 200.79892153 196.87041235 201.47892153 C197.57166235 201.60267153 198.27291235 201.72642153 198.99541235 201.85392153 C210.62351629 204.38177022 223.02383834 211.46171384 231.87041235 219.47892153 C231.87041235 220.13892153 231.87041235 220.79892153 231.87041235 221.47892153 C232.70572485 221.85017153 232.70572485 221.85017153 233.55791235 222.22892153 C247.39220713 229.70691871 256.90110564 249.0732531 261.87041235 263.47892153 C266.2681924 278.8033988 267.34174646 294.20292718 267.30791235 310.04142153 C267.30795263 310.83674288 267.30799292 311.63206423 267.30803442 312.45148623 C267.28525261 320.18081415 267.15360491 327.69717017 265.36723852 335.25846255 C264.48949706 339.18134144 264.18252048 343.1695156 263.80791235 347.16642153 C262.31687932 362.50804238 262.31687932 362.50804238 259.87041235 368.47892153 C259.39357706 370.74182197 258.96008875 373.01406683 258.55791235 375.29142153 C257.24524729 382.31121215 255.28571802 389.00568446 253.0696311 395.78751528 C251.79249384 399.71876842 250.64676719 403.67493777 249.5461936 407.65860903 C248.87041235 409.47892153 248.87041235 409.47892153 246.87041235 411.47892153 C246.13699655 413.16681084 245.40692399 414.85635571 244.70488501 416.55753481 C241.2672005 424.4728587 236.454338 432.17905988 231.09697485 438.92814028 C229.94342441 440.38661011 228.90188819 441.93170777 227.87041235 443.47892153 C227.21041235 443.47892153 226.55041235 443.47892153 225.87041235 443.47892153 C225.53009985 444.31423403 225.53009985 444.31423403 225.18291235 445.16642153 C223.48468433 448.15853756 221.36277039 450.09492688 218.87041235 452.47892153 C218.31482641 453.06673403 217.75924047 453.65454653 217.1868186 454.26017153 C211.64983902 460.06191313 205.55047016 465.03925234 198.87041235 469.47892153 C198.21041235 469.47892153 197.55041235 469.47892153 196.87041235 469.47892153 C196.87041235 470.13892153 196.87041235 470.79892153 196.87041235 471.47892153 C195.88041235 471.47892153 194.89041235 471.47892153 193.87041235 471.47892153 C193.87041235 472.13892153 193.87041235 472.79892153 193.87041235 473.47892153 C193.20009985 473.72642153 192.52978735 473.97392153 191.83916235 474.22892153 C188.21389577 475.75534957 184.81929659 477.59398678 181.37041235 479.47892153 C177.2686089 481.72069926 173.25779618 483.8346267 168.87041235 485.47892153 C167.98353735 485.87079653 167.09666235 486.26267153 166.18291235 486.66642153 C165.03822485 487.06860903 165.03822485 487.06860903 163.87041235 487.47892153 C163.21041235 487.14892153 162.55041235 486.81892153 161.87041235 486.47892153 C161.54041235 487.13892153 161.21041235 487.79892153 160.87041235 488.47892153 C156.52643693 490.26106529 152.06579735 491.05148225 147.4758811 491.91251528 C145.03545423 492.44304286 142.78913434 493.16061756 140.43291235 493.97892153 C122.27216683 499.41685372 102.02802139 497.79468769 83.25900733 497.81025481 C78.85910304 497.81606848 74.45924008 497.83325892 70.05936193 497.84894717 C61.46997739 497.87780736 52.88060095 497.8963638 44.29118209 497.91128727 C34.28449588 497.92905128 24.27784595 497.95706253 14.27118511 497.98541949 C-3.57308459 498.03562832 -21.41736332 498.07644365 -39.26166773 498.11197817 C-56.57907382 498.14647023 -73.89644508 498.18793827 -91.21381617 498.23697817 C-92.28301202 498.24000513 -93.35220788 498.24303208 -94.45380361 498.24615075 C-96.05483339 498.25068381 -96.05483339 498.25068381 -97.68820721 498.25530845 C-117.42269222 498.31112167 -137.15718896 498.36032707 -156.89169871 498.4065085 C-163.8705821 498.42299621 -170.84945864 498.44147628 -177.82833529 498.46058619 C-186.3170376 498.48370373 -194.80573905 498.50305136 -203.29446048 498.5176191 C-207.62689644 498.52512652 -211.95931316 498.53424266 -216.29173517 498.5476681 C-220.25160448 498.55988393 -224.2114541 498.56749968 -228.17134016 498.57132719 C-229.60889092 498.57353323 -231.04644019 498.57745671 -232.48398114 498.58320745 C-234.42741223 498.59072724 -236.37086591 498.59153481 -238.3143115 498.59193861 C-239.39684723 498.59427195 -240.47938296 498.59660529 -241.59472281 498.59900934 C-244.12958765 498.47892153 -244.12958765 498.47892153 -246.12958765 497.47892153 C-246.50723741 494.17448611 -246.42847338 492.8653663 -244.35615015 490.18595278 C-243.62138453 489.29263247 -242.8866189 488.39931216 -242.12958765 487.47892153 C-237.6383122 480.62381689 -233.56991968 473.55034242 -229.7116189 466.32267153 C-227.22674004 461.85602508 -224.49345245 457.5507987 -221.7663064 453.22892153 C-220.02870052 450.53201869 -220.02870052 450.53201869 -219.12958765 447.47892153 C-218.46958765 447.47892153 -217.80958765 447.47892153 -217.12958765 447.47892153 C-216.82021265 446.53017153 -216.51083765 445.58142153 -216.19208765 444.60392153 C-215.12958765 441.47892153 -215.12958765 441.47892153 -214.12958765 439.47892153 C-213.46958765 439.47892153 -212.80958765 439.47892153 -212.12958765 439.47892153 C-211.88466578 438.63329653 -211.6397439 437.78767153 -211.38740015 436.91642153 C-210.00300908 433.13299252 -208.12662539 429.87687088 -206.00458765 426.47892153 C-205.18947611 425.14899404 -204.37570276 423.81824557 -203.5631814 422.48673403 C-203.15438745 421.81803286 -202.74559351 421.14933169 -202.32441187 420.46036685 C-200.51369276 417.45754783 -198.78947821 414.40797318 -197.06708765 411.35392153 C-193.24497173 404.63095667 -189.32095573 397.97930675 -185.12958765 391.47892153 C-184.83535636 390.88584667 -184.54112507 390.2927718 -184.23797768 389.68172497 C-182.54148413 386.65844432 -181.26483473 384.79954987 -177.84131444 383.83264351 C-174.85553127 383.58194732 -171.93975776 383.56263417 -168.94362879 383.6126343 C-167.80049508 383.60398091 -166.65736138 383.59532751 -165.47958726 383.58641189 C-161.63932895 383.56581316 -157.8010671 383.59519354 -153.96088648 383.6241852 C-151.21103388 383.62347148 -148.46124909 383.61218007 -145.71142054 383.6012665 C-139.78273602 383.583186 -133.85451811 383.59047728 -127.92586184 383.61474574 C-119.33451199 383.64969599 -110.74355748 383.64405553 -102.15216848 383.62824515 C-88.18730415 383.60346189 -74.22261962 383.6084316 -60.25776148 383.63346255 C-46.73724234 383.65760648 -33.21678049 383.67290601 -19.69623804 383.67252505 C-18.44997522 383.67249936 -18.44997522 383.67249936 -17.17853538 383.67247315 C-8.08930167 383.67198553 0.99992806 383.66846717 10.08915949 383.66208518 C10.89049593 383.66153159 11.69183237 383.660978 12.51745174 383.66040764 C15.72320396 383.65817056 18.92895613 383.65592901 22.13470808 383.65333442 C31.48571189 383.64588212 40.83660761 383.64757092 50.18759773 383.66618458 C56.06667914 383.67773449 61.94574197 383.68286175 67.82483467 383.68316212 C71.20732662 383.68368268 74.58965741 383.68867772 77.97213888 383.70050013 C95.10487579 383.78875206 95.10487579 383.78875206 112.18530798 382.6143738 C112.88044129 382.53985088 113.57557459 382.46532796 114.29177254 382.38854676 C123.53920141 381.21784861 132.44959194 377.71463971 138.56572485 370.47110903 C142.27064684 364.98458521 144.36450173 359.90593295 145.87041235 353.47892153 C146.14884985 352.35872622 146.42728735 351.23853091 146.71416235 350.08439028 C149.54552472 337.98555942 150.47578113 326.80401125 144.24541235 315.54142153 C133.32650146 306.05920944 117.27016222 308.33236726 103.76054907 308.33707583 C101.94729545 308.33403854 100.13404259 308.33051553 98.32079077 308.32654727 C94.43208626 308.31869758 90.54339076 308.31352808 86.65467978 308.3102566 C80.48039781 308.30430001 74.30617209 308.28771338 68.13191748 308.26891482 C66.00901369 308.26257817 63.88610986 308.25625254 61.76320601 308.24993765 C60.70030859 308.24677184 59.63741118 308.24360603 58.54230475 308.24034429 C44.18635198 308.19846478 29.83042604 308.16534472 15.47441626 308.1529938 C5.76735607 308.14455719 -3.93956355 308.12186138 -13.6465534 308.08363813 C-18.76633228 308.0640633 -23.88590199 308.05141006 -29.00572062 308.05647242 C-57.12881261 308.07894408 -83.39115945 307.21165782 -110.12958765 297.47892153 C-110.84807886 297.22344546 -111.56657007 296.96796938 -112.30683374 296.70475161 C-116.78975375 295.07950054 -120.29777955 293.2569824 -124.12958765 290.47892153 C-123.79958765 288.49892153 -123.46958765 286.51892153 -123.12958765 284.47892153 C-122.46958765 284.47892153 -121.80958765 284.47892153 -121.12958765 284.47892153 C-120.86146265 283.57142153 -120.59333765 282.66392153 -120.31708765 281.72892153 C-119.19616749 278.66114003 -118.06420578 277.03639233 -116.12958765 274.47892153 C-115.16423371 272.78617205 -114.22849963 271.07631441 -113.31708765 269.35392153 C-111.28222662 265.56260085 -109.17795119 261.84280412 -106.94208765 258.16642153 C-104.81820734 254.67121692 -102.87997529 251.17418434 -101.12958765 247.47892153 C-100.46958765 247.47892153 -99.80958765 247.47892153 -99.12958765 247.47892153 C-98.86146265 246.59204653 -98.59333765 245.70517153 -98.31708765 244.79142153 C-97.18959739 241.64631712 -95.8993798 239.2974794 -94.12958765 236.47892153 C-93.3102325 235.02442867 -92.49840561 233.56568201 -91.69208765 232.10392153 C-91.25767359 231.32017153 -90.82325953 230.53642153 -90.3756814 229.72892153 C-89.96447046 228.98642153 -89.55325953 228.24392153 -89.12958765 227.47892153 C-86.22551077 222.25158315 -83.07839085 217.23554826 -79.8131814 212.22501528 C-78.08465771 209.40563673 -76.6085528 206.43685183 -75.12958765 203.47892153 C-107.79958765 203.47892153 -140.46958765 203.47892153 -174.12958765 203.47892153 C-176.12958765 198.47892153 -176.12958765 198.47892153 -174.87958765 195.29142153 C-174.58697046 194.7048981 -174.29435328 194.11837466 -173.9928689 193.51407778 C-172.65404627 190.35784887 -172.20635158 187.08307362 -171.6569314 183.71329653 C-171.12958765 181.47892153 -171.12958765 181.47892153 -169.12958765 178.47892153 C-168.57579654 176.53511474 -168.08155178 174.57389561 -167.62958765 172.60392153 C-166.73289037 168.71498444 -165.62280945 165.17361262 -164.12958765 161.47892153 C-163.66160242 159.73682622 -163.22618433 157.98577843 -162.81708765 156.22892153 C-161.03867527 148.91767062 -158.88126233 141.73412081 -156.7350564 134.52481997 C-155.15595325 129.1889795 -153.65105068 123.83140657 -152.12958765 118.47892153 C-148.73074722 106.52882552 -145.31128125 94.58517104 -141.81049585 82.66446841 C-140.27796885 77.44283668 -138.77023092 72.21607058 -137.3053689 66.97501528 C-137.00364771 65.90807436 -136.70192652 64.84113345 -136.39106226 63.74186099 C-135.8200281 61.72051643 -135.25644756 59.69704385 -134.70209742 57.6710602 C-132.29803713 49.21902181 -129.17379787 41.08525397 -123.12958765 34.54142153 C-122.17052515 33.47601138 -122.17052515 33.47601138 -121.19208765 32.38907778 C-117.61317614 29.07451769 -113.67054057 27.16556119 -109.12958765 25.47892153 C-109.12958765 24.81892153 -109.12958765 24.15892153 -109.12958765 23.47892153 C-106.79156242 22.30990892 -104.45330869 21.14138414 -102.11396265 19.97501528 C-100.12018874 18.97551868 -98.13058859 17.96765369 -96.14521265 16.95157778 C-87.73947108 12.67248913 -79.5654855 8.68664759 -70.2350564 6.97110903 C-68.06308719 6.52780741 -68.06308719 6.52780741 -65.87653804 5.51402169 C-46.17004415 -1.91173856 -20.78365281 -0.1016812 0 0 Z " fill="#010101" transform="translate(1020.1295876502991,504.5210784673691)"/>
    <path d="M0 0 C1.25975779 0.00276807 2.51951558 0.00553615 3.81744784 0.0083881 C4.52174683 0.00310887 5.22604581 -0.00217037 5.95168719 -0.00760958 C8.3302812 -0.01925172 10.70717862 0.00503593 13.08566207 0.0289579 C14.8008658 0.02804453 16.51606954 0.02494357 18.2312659 0.01983416 C22.95950425 0.01219406 27.68715151 0.03597967 32.41528946 0.06476182 C37.50975979 0.09038503 42.60422153 0.08726712 47.69874495 0.08775002 C57.69016828 0.09337032 67.68133106 0.12603899 77.67266081 0.16802865 C85.80120725 0.20162161 93.9297247 0.22507199 102.05832404 0.24122483 C103.21444202 0.24352274 104.37056001 0.24582066 105.56171187 0.24818822 C107.91044413 0.2527993 110.25917644 0.25738094 112.60790881 0.26193345 C133.40536723 0.3032629 154.20267089 0.36987981 175.00001448 0.44950539 C195.15169458 0.52665772 215.30329183 0.58236115 235.45509261 0.61552101 C257.4012311 0.6516571 279.347276 0.70045542 301.29333484 0.77044451 C303.63933463 0.77790515 305.98533445 0.78535686 308.33133429 0.79279953 C309.48551586 0.79647573 310.63969744 0.80015193 311.82885421 0.80393953 C319.93077088 0.82894544 328.03267789 0.84523634 336.1346218 0.85824066 C346.03408115 0.87445242 355.93337556 0.90518418 365.83273075 0.95378142 C370.87640664 0.97821414 375.91989598 0.996641 380.96363562 0.99769455 C406.34321574 1.00866437 430.33334801 1.22600422 453.96607894 11.61918312 C455.019243 12.070355 456.07240706 12.52152687 457.15748519 12.98637062 C467.3732715 17.70134892 476.14132366 24.58150933 483.96607894 32.61918312 C484.89420394 33.50605812 485.82232894 34.39293312 486.77857894 35.30668312 C488.96607894 37.61918312 488.96607894 37.61918312 488.96607894 39.61918312 C489.62607894 39.61918312 490.28607894 39.61918312 490.96607894 39.61918312 C491.29607894 40.93918312 491.62607894 42.25918312 491.96607894 43.61918312 C492.62607894 43.61918312 493.28607894 43.61918312 493.96607894 43.61918312 C506.45089498 64.78276449 513.5807277 85.6794565 510.96607894 110.61918312 C509.84518188 114.7027486 508.50410112 118.21208062 505.96607894 121.61918312 C505.30607894 121.94918312 504.64607894 122.27918312 503.96607894 122.61918312 C503.25897216 124.26909895 502.60045237 125.93995932 501.96607894 127.61918312 C499.15541789 133.63113945 495.70409963 139.28097087 492.34107894 144.99418312 C488.32816955 151.83949331 484.32587872 158.68621745 480.46607894 165.61918312 C475.59418128 174.357428 470.52553799 182.98013566 465.47389144 191.61527687 C462.2865136 197.0645241 459.12243835 202.52692751 455.96607894 207.99418312 C452.79393179 213.4883805 449.57677869 218.94865096 446.28639144 224.37308937 C444.80039184 226.90104727 443.4133744 229.47197326 442.02857894 232.05668312 C439.99283038 235.84115563 437.81730218 239.46008669 435.46607894 243.05668312 C433.00211823 246.8528072 430.87985048 250.67296055 428.90357894 254.74418312 C426.77579088 259.12294696 424.41555136 263.04669828 421.64967269 267.04105812 C419.51090559 270.31620032 417.61530446 273.70106953 415.71607894 277.11918312 C411.73248833 284.28322788 407.63948333 291.37247977 403.44654769 298.41605812 C401.78118294 301.21663239 400.16444218 304.03807681 398.57936019 306.88480812 C398.19199691 307.56599709 397.80463362 308.24718605 397.40553206 308.94901711 C396.68054461 310.22449871 395.96845515 311.50744448 395.27271956 312.79911476 C392.72047129 317.22900005 389.80399909 320.01865613 384.96607894 321.61918312 C380.70670197 322.32407109 376.46215408 322.58693345 372.15357894 322.80668312 C369.89686812 322.94272147 367.64034265 323.08188217 365.38404769 323.22465187 C364.39171126 323.27774513 363.39937484 323.3308384 362.37696761 323.38554054 C359.95621657 323.47459255 359.95621657 323.47459255 357.96607894 324.61918312 C358.48170394 325.23793312 358.99732894 325.85668312 359.52857894 326.49418312 C365.0272809 333.54380102 369.92512836 341.02954225 374.86061019 348.47855812 C380.25812879 356.61331121 385.80592908 364.61874253 391.50953597 372.5415464 C395.43473354 378.00118058 399.26125276 383.50737553 402.96607894 389.11918312 C406.62667543 394.66382585 410.4073241 400.10256383 414.2885887 405.4946714 C419.54548158 412.79939714 424.63193926 420.22127233 429.72779769 427.63871437 C430.19967513 428.32554299 430.67155257 429.0123716 431.15772933 429.7200132 C432.10644233 431.1011493 433.05485181 432.48249395 434.00294417 433.86405617 C437.14330427 438.43625569 440.31592188 442.98408707 443.52857894 447.50590187 C444.00295394 448.20328469 444.47732894 448.9006675 444.96607894 449.61918312 C445.56420394 450.36812844 446.16232894 451.11707375 446.77857894 451.88871437 C448.4929953 455.83074409 447.25171327 458.7338683 445.96607894 462.61918312 C445.55672823 464.02453366 445.15048378 465.43079266 444.74732894 466.83793312 C444.10875476 468.98087838 443.4651498 471.12227463 442.82154769 473.26371437 C441.77535734 476.77454946 440.79085767 480.27845604 439.93873519 483.84183937 C439.13778456 486.95235846 438.24479126 489.6549728 436.90357894 492.55668312 C436.56197737 493.30820656 436.22037581 494.05973 435.86842269 494.83402687 C434.96607894 496.61918312 434.96607894 496.61918312 433.96607894 497.61918312 C430.95257656 497.71447924 427.96203788 497.74470216 424.94825667 497.73270851 C424.0020143 497.73285454 423.05577193 497.73300057 422.08085555 497.73315102 C418.93710502 497.73245149 415.79341293 497.72465721 412.64967269 497.71683937 C410.47633826 497.71497534 408.30300341 497.71355137 406.12966841 497.71255165 C400.39706698 497.70872534 394.66449071 497.69889409 388.93189925 497.68784767 C383.08717615 497.67763599 377.242449 497.67305456 371.39771956 497.66801125 C359.92049494 497.65727192 348.44328903 497.64019414 336.96607894 497.61918312 C336.69795394 496.97980812 336.42982894 496.34043312 336.15357894 495.68168312 C335.07940141 493.28786626 335.07940141 493.28786626 331.96607894 492.61918312 C330.92667874 490.63937323 329.93720144 488.63336313 328.96607894 486.61918312 C326.29619395 482.27617021 323.34149578 478.12564551 320.35279769 473.99808937 C319.67035994 473.05352883 319.67035994 473.05352883 318.97413558 472.08988625 C318.06001852 470.82867902 317.14130452 469.57078951 316.21778792 468.31644875 C312.96607894 463.83888968 312.96607894 463.83888968 312.96607894 461.61918312 C312.30607894 460.97980812 311.64607894 460.34043312 310.96607894 459.68168312 C308.96607894 457.61918312 308.96607894 457.61918312 308.96607894 454.61918312 C308.30607894 454.61918312 307.64607894 454.61918312 306.96607894 454.61918312 C305.55592269 452.45121437 305.55592269 452.45121437 303.90357894 449.43168312 C301.23632414 444.71097694 298.40841577 440.23253872 295.27857894 435.80668312 C292.86947463 432.39378535 290.53681018 429.0334558 288.52857894 425.36918312 C287.25346908 422.53090409 287.25346908 422.53090409 284.96607894 421.61918312 C284.2391399 419.64029352 283.56791643 417.63963755 282.96607894 415.61918312 C282.30607894 415.61918312 281.64607894 415.61918312 280.96607894 415.61918312 C279.22457241 412.98204466 277.58840232 410.32871799 275.96607894 407.61918312 C274.78568928 405.71891458 273.59794883 403.82319596 272.40357894 401.93168312 C271.84541487 401.04094094 271.28725081 400.15019875 270.71217269 399.23246437 C268.98301222 396.54273768 268.98301222 396.54273768 266.75123519 393.97465187 C264.96607894 391.61918312 264.96607894 391.61918312 264.96607894 388.61918312 C264.30607894 388.61918312 263.64607894 388.61918312 262.96607894 388.61918312 C262.57420394 387.77355812 262.18232894 386.92793312 261.77857894 386.05668312 C260.38804847 383.41947017 259.03064941 381.24343771 257.27857894 378.86918312 C254.96607894 375.61918312 254.96607894 375.61918312 254.96607894 373.61918312 C254.30607894 373.61918312 253.64607894 373.61918312 252.96607894 373.61918312 C252.96607894 372.29918312 252.96607894 370.97918312 252.96607894 369.61918312 C251.97607894 369.28918312 250.98607894 368.95918312 249.96607894 368.61918312 C246.96607894 364.28584979 246.96607894 364.28584979 246.96607894 361.61918312 C246.30607894 361.61918312 245.64607894 361.61918312 244.96607894 361.61918312 C244.63607894 359.96918312 244.30607894 358.31918312 243.96607894 356.61918312 C243.30607894 356.61918312 242.64607894 356.61918312 241.96607894 356.61918312 C238.96607894 352.23456774 238.96607894 352.23456774 238.96607894 349.61918312 C238.30607894 349.28918312 237.64607894 348.95918312 236.96607894 348.61918312 C236.34107894 346.55668312 236.34107894 346.55668312 235.96607894 344.61918312 C235.30607894 344.61918312 234.64607894 344.61918312 233.96607894 344.61918312 C232.48203905 342.52157888 231.11861038 340.43148015 229.77857894 338.24418312 C228.97166212 336.95537127 228.16305374 335.66761702 227.35279769 334.38090187 C226.95109359 333.74201027 226.54938948 333.10311867 226.13551253 332.44486672 C224.02642107 329.15221829 221.75282261 325.97896838 219.47389144 322.80277687 C217.86041686 320.46616473 216.42342115 318.05567713 214.96607894 315.61918312 C213.41763048 313.33502906 211.84824037 311.0669621 210.27076644 308.80277687 C209.01468659 306.70053546 208.41081657 305.01100382 207.96607894 302.61918312 C207.30607894 302.61918312 206.64607894 302.61918312 205.96607894 302.61918312 C204.82938139 300.87364757 203.78295505 299.06906787 202.77857894 297.24418312 C199.49196048 291.43782385 195.85671819 286.03140902 191.96607894 280.61918312 C187.96607894 274.94859489 187.96607894 274.94859489 187.96607894 272.61918312 C187.30607894 272.61918312 186.64607894 272.61918312 185.96607894 272.61918312 C184.48251527 270.35304718 183.11664627 268.09448606 181.77857894 265.74418312 C178.53628693 260.16836348 175.14076052 254.84636053 171.27857894 249.66996437 C169.96690918 247.62048038 169.39568823 245.99814456 168.96607894 243.61918312 C168.30607894 243.61918312 167.64607894 243.61918312 166.96607894 243.61918312 C166.51232894 242.67043312 166.05857894 241.72168312 165.59107894 240.74418312 C164.1636964 237.61604634 164.1636964 237.61604634 161.96607894 235.61918312 C161.96607894 234.62918312 161.96607894 233.63918312 161.96607894 232.61918312 C160.97607894 232.28918312 159.98607894 231.95918312 158.96607894 231.61918312 C157.14186019 228.89652687 157.14186019 228.89652687 155.27857894 225.55668312 C154.65596175 224.45195656 154.03334456 223.34723 153.39186019 222.20902687 C152.92135237 221.35437844 152.45084456 220.49973 151.96607894 219.61918312 C150.97607894 219.94918312 149.98607894 220.27918312 148.96607894 220.61918312 C148.85650862 221.43258156 148.74693831 222.24598 148.63404769 223.08402687 C147.7387006 229.55527533 146.75819655 235.99704198 145.60670394 242.42777687 C145.4774301 243.15499947 145.34815627 243.88222206 145.21496505 244.63148171 C144.80026206 246.96100316 144.38351665 249.29015025 143.96607894 251.61918312 C143.82852187 252.38693062 143.6909648 253.15467812 143.54923934 253.94569069 C142.69413332 258.71456317 141.83597803 263.48288404 140.97727889 268.25111061 C137.73710372 286.25421409 134.5027891 304.25672243 131.53248519 322.30668312 C131.01080126 325.47342437 130.48864581 328.64008746 129.96607894 331.80668312 C129.83646773 332.59262856 129.70685652 333.37857399 129.57331771 334.18833596 C127.97756088 343.84205284 126.27928159 353.45402329 124.28980941 363.03568703 C123.0989197 368.81131584 122.13755453 374.59962127 121.2483055 380.42850929 C119.93624936 388.9663444 118.48698122 397.48038501 117.02857894 405.99418312 C116.8314128 407.14535118 116.8314128 407.14535118 116.63026351 408.31977516 C114.96835537 418.00178052 113.24049768 427.66599579 111.36695784 437.30961281 C108.75210759 450.80191223 106.45142187 464.35184968 104.34107894 477.93168312 C101.52099715 496.06426491 101.52099715 496.06426491 99.96607894 497.61918312 C98.19636553 497.74806687 96.42157487 497.80769863 94.64747542 497.84037453 C93.49952498 497.86350212 92.35157454 497.88662972 91.16883773 497.91045815 C89.90438826 497.93035301 88.6399388 497.95024788 87.33717269 497.97074562 C86.02414168 497.99430626 84.71111068 498.0178669 83.35829085 498.0421415 C79.7816867 498.10480287 76.20500314 498.15946532 72.62823027 498.21151787 C70.41278971 498.24404788 68.19738521 498.27848611 65.9819786 498.3132444 C39.62545546 498.71916212 13.31394737 498.45976838 -13.03392106 497.61918312 C-13.06099246 495.36924953 -13.08034936 493.11922217 -13.09642106 490.86918312 C-13.10802263 489.61621437 -13.11962419 488.36324562 -13.13157731 487.07230812 C-13.05307981 484.29663648 -12.81345314 482.23701473 -12.03392106 479.61918312 C-11.88954606 478.50543312 -11.74517106 477.39168312 -11.59642106 476.24418312 C-11.03392106 472.61918312 -11.03392106 472.61918312 -10.03392106 469.74418312 C-8.74701533 465.72260269 -8.40738991 461.81033348 -8.03392106 457.61918312 C-7.89463517 456.05608586 -7.7489262 454.49354605 -7.59642106 452.93168312 C-7.53583513 452.24719094 -7.47524919 451.56269875 -7.41282731 450.85746437 C-7.03392106 448.61918312 -7.03392106 448.61918312 -6.05735856 445.82621437 C-4.897525 442.19177409 -4.48918117 438.78712356 -4.09642106 434.99418312 C-3.54622147 430.06549968 -2.83008042 425.35703208 -1.53392106 420.55668312 C-0.03711291 414.98855679 0.7300095 409.46084653 1.43873519 403.74418312 C2.85429734 392.39761089 4.77332858 381.17231682 7.28248519 370.01762062 C8.01968493 366.35268476 8.51078395 362.70427288 8.96607894 358.99418312 C9.67145256 353.280064 10.8256158 347.88294423 12.30592269 342.32621437 C13.2527494 338.44366461 13.63139987 334.59260695 13.96607894 330.61918312 C14.14932915 328.93121634 14.33675338 327.24369689 14.52857894 325.55668312 C14.67295394 324.25730812 14.81732894 322.95793312 14.96607894 321.61918312 C15.62607894 321.61918312 16.28607894 321.61918312 16.96607894 321.61918312 C16.47107894 320.13418312 16.47107894 320.13418312 15.96607894 318.61918312 C16.29607894 317.95918312 16.62607894 317.29918312 16.96607894 316.61918312 C17.40758295 312.92761595 17.78128343 309.23652297 18.12818831 305.53519875 C18.62125702 300.68067678 19.59440752 296.31742774 20.96607894 291.61918312 C21.32446486 289.06269686 21.63533166 286.49919279 21.90357894 283.93168312 C22.56858436 278.01272607 23.68266965 272.44624301 25.24342269 266.68949562 C26.377636 261.87062176 26.89881104 256.98913065 27.50123519 252.08012062 C27.96288353 248.64297412 28.65044173 245.35868658 29.46607894 241.99418312 C30.12458178 238.86629463 30.5366341 235.72383877 30.96607894 232.55668312 C31.47700309 228.79515493 31.99861446 225.14864968 33.02857894 221.49418312 C33.82250114 218.21263801 34.18155288 215.40039555 34.40357894 212.05668312 C34.82833775 206.0342099 35.96101111 200.28226113 37.20436019 194.38090187 C38.14239947 189.74843095 38.85811942 185.10037772 39.53639144 180.42387062 C40.39576644 174.81449562 40.39576644 174.81449562 40.96607894 172.61918312 C43.35656721 171.42393899 44.82122922 171.49341143 47.48977584 171.49219948 C48.44187941 171.48937966 49.39398299 171.48655983 50.37493819 171.48365456 C51.94674598 171.48669091 51.94674598 171.48669091 53.55030745 171.48978859 C55.2015663 171.48716011 55.2015663 171.48716011 56.88618392 171.48447853 C60.53913353 171.48006317 64.19203505 171.48299672 67.84498519 171.48637062 C70.37321913 171.48569754 72.90145301 171.48472748 75.42968673 171.48347145 C80.73340961 171.48199495 86.03711512 171.48405294 91.3408348 171.48881203 C97.48021436 171.49425721 103.61956074 171.49248962 109.7589395 171.48698562 C115.65679982 171.48190901 121.55464978 171.48243584 127.45251197 171.48536736 C129.96645473 171.48603681 132.48039834 171.48520757 134.99434012 171.4828878 C138.49999828 171.48036295 142.00559165 171.48419939 145.51124495 171.48978859 C146.56114104 171.48776436 147.61103713 171.48574013 148.69274825 171.48365456 C149.642032 171.48647438 150.59131575 171.48929421 151.56936568 171.49219948 C152.39914711 171.49257651 153.22892853 171.49295353 154.08385485 171.49334198 C155.96607894 171.61918312 155.96607894 171.61918312 156.96607894 172.61918312 C156.86254202 185.2506872 153.53851136 198.30177142 150.96607894 210.61918312 C153.95789143 212.11508937 157.02423658 211.76356347 160.30532759 211.75962502 C161.45371136 211.7640817 161.45371136 211.7640817 162.6252948 211.76862842 C165.20512764 211.77733836 167.78491418 211.77882567 170.36476058 211.78031594 C172.20937117 211.78494296 174.0539808 211.78996746 175.89858931 211.7953611 C180.92424508 211.80850936 185.94988746 211.81493626 190.97555774 211.81937176 C194.11986027 211.82230218 197.26415915 211.82640722 200.40845984 211.83087593 C210.25800485 211.84456516 220.10754152 211.85422147 229.95709538 211.85807782 C241.30214966 211.86254437 252.64708259 211.8800207 263.9921 211.90907842 C272.7719537 211.9307788 281.55177351 211.94078675 290.33165371 211.94211894 C295.56867427 211.94316219 300.805581 211.94896534 306.04257315 211.96693856 C310.98296218 211.98356118 315.92315363 211.98550674 320.86356086 211.97679955 C322.66410403 211.97603636 324.46465843 211.98027544 326.26517409 211.9902578 C342.69735275 212.07591452 364.3156233 212.10930932 376.78248519 199.83012062 C383.6826333 192.36816505 385.74049994 184.32042491 387.96607894 174.61918312 C388.24838362 173.56473 388.53068831 172.51027687 388.82154769 171.42387062 C390.85866771 163.02672798 391.33873127 154.86399047 391.46607894 146.24418312 C391.49661361 145.1386509 391.52714827 144.03311867 391.55860823 142.89408547 C391.56130966 135.73315435 390.50448995 130.32133077 385.96607894 124.61918312 C384.97607894 123.95918312 383.98607894 123.29918312 382.96607894 122.61918312 C382.96607894 121.95918312 382.96607894 121.29918312 382.96607894 120.61918312 C380.67937499 119.94937202 378.38940352 119.30948634 376.09107894 118.68168312 C375.47877425 118.49928078 374.86646956 118.31687844 374.23561019 118.12894875 C355.77514543 113.20018389 334.64659764 115.49181197 315.65462774 115.5324356 C311.13540135 115.54094835 306.61617103 115.54347718 302.09693831 115.54668862 C294.28552226 115.5529551 286.47411689 115.56267389 278.66270751 115.57458359 C267.36466852 115.59162849 256.06663213 115.60113243 244.7685831 115.60846233 C226.42799915 115.62037795 208.08741936 115.63531851 189.74684066 115.65360695 C188.65154146 115.65469707 187.55624226 115.6557872 186.42775218 115.65691035 C170.84918926 115.67255474 155.27063122 115.6911594 139.69207303 115.71090823 C138.59252916 115.71230154 137.49298529 115.71369485 136.36012191 115.71513039 C135.26192418 115.71652392 134.16372645 115.71791745 133.03225 115.71935321 C114.73902311 115.74236523 96.44579941 115.75769326 78.15256029 115.76668978 C66.87637601 115.7725463 55.60023575 115.78492906 44.32406883 115.80566256 C36.61138613 115.81934186 28.89871887 115.82586198 21.18602414 115.82667268 C16.73384017 115.82737834 12.28172195 115.83141366 7.82955474 115.84413582 C3.75786962 115.85571037 -0.3137129 115.85814944 -4.3854105 115.85319363 C-5.86138454 115.85304182 -7.33736353 115.85631086 -8.81332116 115.86327071 C-10.81338819 115.87221807 -12.81350205 115.86772072 -14.81358224 115.86248547 C-15.92627823 115.86378698 -17.03897422 115.8650885 -18.18538827 115.86642945 C-20.99738838 115.62235408 -22.64806122 115.07743628 -25.03392106 113.61918312 C-24.24511056 104.68590422 -22.40306915 95.9742209 -20.61790544 87.19926125 C-19.12206992 79.81933339 -17.74334885 72.52084691 -17.23875505 64.99491554 C-16.77790476 59.64982119 -15.66189604 54.43333305 -13.90892106 49.36918312 C-12.93412925 46.3055517 -12.96442117 43.81617833 -13.03392106 40.61918312 C-12.73120145 39.2785677 -12.39554135 37.94512417 -12.03392106 36.61918312 C-11.88954606 35.50543312 -11.74517106 34.39168312 -11.59642106 33.24418312 C-11.03392106 29.61918312 -11.03392106 29.61918312 -10.03392106 26.74418312 C-9.18973987 24.10611689 -8.79801233 22.02776631 -8.53392106 19.30668312 C-6.78093373 1.3838988 -6.78093373 1.3838988 0 0 Z " fill="#010101" transform="translate(273.0339210629463,504.3808168768883)"/>
    <path d="M0 0 C0.99 0.495 0.99 0.495 2 1 C1.01081794 7.72904114 -0.48197816 13.87465607 -3 20.19921875 C-4.01785303 23.05000242 -4.73673626 25.92000622 -5.46014404 28.85664368 C-6.27095465 32.07575428 -7.18608999 35.26237943 -8.1015625 38.453125 C-8.29900055 39.14283386 -8.4964386 39.83254272 -8.69985962 40.54315186 C-9.34025594 42.77914792 -9.98254736 45.01459398 -10.625 47.25 C-11.30116874 49.60690989 -11.97701287 51.9639127 -12.65283203 54.32092285 C-13.10871641 55.91073407 -13.56477146 57.50049635 -14.02099609 59.09020996 C-15.43241796 64.01059754 -16.83354463 68.93374492 -18.2265625 73.859375 C-21.26726033 84.59884562 -24.35709242 95.30229185 -27.78442383 105.92504883 C-30.160461 113.35627951 -32.24040433 120.86454441 -34.32226562 128.38256836 C-36.62472924 136.69231135 -39.01285002 144.97405634 -41.44287109 153.24731445 C-42.83895903 158.00506614 -44.22235363 162.76521623 -45.5625 167.5390625 C-48.14136282 176.71991403 -50.8765309 185.7963335 -53.95898438 194.82128906 C-55.64750183 199.80846197 -57.0186541 204.80070621 -58.21875 209.9296875 C-59.3608298 214.4180611 -60.77444575 218.81364677 -62.19946289 223.21923828 C-65.38764394 231.21043247 -65.38764394 231.21043247 -65 239 C-35.63 239 -6.26 239 24 239 C23.13942133 243.30289335 22.50549589 245.2334639 20.33984375 248.80859375 C19.797229 249.71391846 19.25461426 250.61924316 18.69555664 251.55200195 C18.11539795 252.50421631 17.53523926 253.45643066 16.9375 254.4375 C15.7465353 256.41875381 14.55643003 258.40052449 13.3671875 260.3828125 C12.78807617 261.34477539 12.20896484 262.30673828 11.61230469 263.29785156 C9.53941748 266.77191509 7.54218699 270.2847946 5.5625 273.8125 C3.46101808 277.52643974 1.30036547 281.11476669 -1.125 284.625 C-3.41617118 287.95648674 -5.23209006 291.36341841 -7 295 C-8.72947035 298.55700345 -10.48665069 301.88256138 -12.75 305.125 C-16.8546595 311.03223483 -20.17913703 317.39542622 -23.6328125 323.6953125 C-24.03016602 324.41750977 -24.42751953 325.13970703 -24.83691406 325.88378906 C-25.60379182 327.27910737 -26.36627098 328.6768535 -27.12402344 330.07714844 C-29.77600317 334.88800158 -29.77600317 334.88800158 -32 336 C-32.65213292 338.02463255 -32.65213292 338.02463255 -33 340 C-33.66 340 -34.32 340 -35 340 C-35.12503906 340.58394531 -35.25007812 341.16789062 -35.37890625 341.76953125 C-36.00115094 344.00413327 -36.79136498 345.67666525 -37.9375 347.6875 C-38.38609375 348.47511719 -38.8346875 349.26273438 -39.296875 350.07421875 C-42.7239592 355.96157211 -46.17798285 361.83269978 -49.64306641 367.69775391 C-51.01070719 370.01816638 -52.37158385 372.34241922 -53.73046875 374.66796875 C-54.17366455 375.42529297 -54.61686035 376.18261719 -55.07348633 376.96289062 C-55.91709437 378.40482581 -56.759458 379.84749006 -57.6003418 381.29101562 C-59.40316005 384.36762533 -61.23573661 387.39118649 -63.2421875 390.33984375 C-64.79561117 392.69069157 -65.57739565 394.25307172 -66 397 C-66.66 397 -67.32 397 -68 397 C-68.26554688 397.886875 -68.53109375 398.77375 -68.8046875 399.6875 C-69.94940386 402.85978587 -71.25264454 405.21323839 -73.125 408 C-76.09545681 412.5498408 -78.856326 417.16984463 -81.53027344 421.89916992 C-84.92894605 427.89930546 -88.39809821 433.85740568 -91.875 439.8125 C-92.48255127 440.8530957 -93.09010254 441.89369141 -93.71606445 442.96582031 C-98.0067462 450.309454 -102.30898921 457.64618394 -106.62890625 464.97265625 C-108.2891921 467.78912616 -109.94167962 470.6100138 -111.58984375 473.43359375 C-115.73986749 480.53383085 -119.95579679 487.55312494 -124.421875 494.4609375 C-126.60422011 497.97213632 -128.5239474 501.60740137 -130.46875 505.25390625 C-132.03678553 508.06596996 -133.73756045 510.74359569 -135.5 513.4375 C-137.96396071 517.23362408 -140.08622846 521.05377743 -142.0625 525.125 C-144.16355626 529.44843336 -146.48298014 533.30826783 -149.2265625 537.2421875 C-152.21087991 541.88299828 -154.78639138 546.75924282 -157.39746094 551.61767578 C-159.62264527 555.71183905 -161.79908122 559.56553779 -165 563 C-165.66 563 -166.32 563 -167 563 C-165.67350882 554.44762266 -163.48478377 546.28261255 -161 538 C-160.59394531 536.61554688 -160.59394531 536.61554688 -160.1796875 535.203125 C-159.03192284 531.31280689 -157.82372276 527.45899495 -156.5 523.625 C-155.29301959 520.07949504 -154.36987954 516.51762056 -153.5 512.875 C-152.39837477 508.32505828 -150.8742402 504.29513379 -149 500 C-148.23052552 497.4306628 -147.55140754 494.84435726 -146.87109375 492.25 C-145.87205641 488.52264993 -144.78567424 484.82397749 -143.6875 481.125 C-141.70711886 474.42299337 -139.74675185 467.71547505 -137.8125 461 C-137.56266357 460.14035645 -137.31282715 459.28071289 -137.05541992 458.39501953 C-135.49645679 452.96416653 -134.17557164 447.52685815 -133 442 C-132.34 442 -131.68 442 -131 442 C-130.96261719 441.43152344 -130.92523437 440.86304688 -130.88671875 440.27734375 C-130.43043388 434.91823324 -129.17441863 430.95767448 -127 426 C-126.4546416 423.61554975 -126.01778507 421.23430406 -125.625 418.8203125 C-124.92486336 415.66094591 -123.92752521 412.68741001 -122.8828125 409.62744141 C-121.15707856 404.49128305 -119.59251699 399.30367368 -118 394.125 C-117.65710938 393.01769531 -117.31421875 391.91039062 -116.9609375 390.76953125 C-114.22022167 381.86743518 -111.66818961 372.93493515 -109.5 363.875 C-108.24419977 358.81275866 -106.72008738 353.92044225 -105 349 C-102.36919543 341.33778168 -99.99519983 333.64402808 -97.83203125 325.8359375 C-97 323 -97 323 -96 321 C-99.20362326 319.39818837 -102.69244334 319.81980984 -106.21337891 319.79467773 C-107.0622316 319.78477814 -107.91108429 319.77487854 -108.78565979 319.76467896 C-111.59926538 319.73302083 -114.41288788 319.70828951 -117.2265625 319.68359375 C-119.17427008 319.66302794 -121.12197316 319.64203157 -123.06967163 319.62062073 C-128.2021521 319.56536148 -133.33467311 319.51596921 -138.46722412 319.46777344 C-143.70214455 319.41758652 -148.93700594 319.36188581 -154.171875 319.30664062 C-164.44786626 319.19901194 -174.72390873 319.09757744 -185 319 C-184.67 317.02 -184.34 315.04 -184 313 C-183.34 313 -182.68 313 -182 313 C-181.773125 312.154375 -181.54625 311.30875 -181.3125 310.4375 C-180.06111005 307.16005013 -178.49021765 304.80160242 -176.40234375 302.01171875 C-174.24545621 298.91757645 -172.56265474 295.59387977 -170.7890625 292.26953125 C-168.26870557 287.66355144 -165.58207532 283.16106334 -162.90161133 278.64697266 C-160.69503051 274.91876962 -158.525828 271.17612573 -156.42578125 267.38671875 C-156.01755127 266.65026123 -155.60932129 265.91380371 -155.1887207 265.1550293 C-154.41027703 263.74379038 -153.63648935 262.32997078 -152.86791992 260.91333008 C-150.21770108 256.10885054 -150.21770108 256.10885054 -148 255 C-147.85820313 254.24589844 -147.71640625 253.49179687 -147.5703125 252.71484375 C-146.91342442 249.58787654 -145.81858337 248.07695651 -143.875 245.5625 C-140.93766204 241.53792652 -138.58902042 237.41978408 -136.4375 232.9375 C-134.10369242 228.08712068 -131.54665455 223.61738981 -128.46484375 219.203125 C-126.23518475 215.84971786 -124.39574012 212.30348216 -122.5 208.75390625 C-121.06660101 206.1222753 -119.55767576 203.55961823 -118 201 C-115.90196677 197.54698697 -113.91796663 194.0562298 -112 190.5 C-107.81879362 182.76912361 -103.32800162 175.31404533 -98.296875 168.10546875 C-96.88399387 165.81166474 -95.99350822 163.50103228 -95 161 C-94.05298043 159.33546143 -93.07263447 157.68951047 -92.0625 156.0625 C-89.84839123 152.44088932 -87.81636876 148.83455628 -86 145 C-85.34 145 -84.68 145 -84 145 C-83.9175 144.319375 -83.835 143.63875 -83.75 142.9375 C-82.77439195 139.11636846 -81.03939064 136.37774075 -79 133 C-78.67 132.34 -78.34 131.68 -78 131 C-77.34 131 -76.68 131 -76 131 C-75.01 128.03 -74.02 125.06 -73 122 C-72.34 122 -71.68 122 -71 122 C-70.74089844 121.1234375 -70.48179687 120.246875 -70.21484375 119.34375 C-69.00034408 116.00094704 -67.53267053 113.44890041 -65.5625 110.5 C-63.1061474 106.74709841 -60.97093531 103.03145858 -59 99 C-57.82217659 97.05438045 -56.60937176 95.13536007 -55.37890625 93.22265625 C-53.5014743 90.19642741 -51.75420613 87.09853564 -50 84 C-45.79643353 76.60546709 -41.59485479 69.22871553 -37.12890625 61.98828125 C-35.86027805 59.90319096 -35.86027805 59.90319096 -35 57 C-34.34 57 -33.68 57 -33 57 C-32.731875 56.113125 -32.46375 55.22625 -32.1875 54.3125 C-29.47126437 46.73563218 -29.47126437 46.73563218 -26 45 C-25.64332681 43.67271965 -25.31363229 42.33810451 -25 41 C-24.32087317 39.67511287 -23.59026862 38.37581002 -22.8203125 37.1015625 C-22.38589844 36.37453125 -21.95148438 35.6475 -21.50390625 34.8984375 C-21.04886719 34.14820313 -20.59382812 33.39796875 -20.125 32.625 C-17.23270859 27.82396297 -14.42589978 23.06065186 -12 18 C-11.34 18 -10.68 18 -10 18 C-9.71125 16.9275 -9.4225 15.855 -9.125 14.75 C-8.27179891 11.90599636 -7.4363497 9.56491017 -6 7 C-5.34 7 -4.68 7 -4 7 C-4 6.01 -4 5.02 -4 4 C-3.34 4 -2.68 4 -2 4 C-1.34 2.68 -0.68 1.36 0 0 Z " fill="#020201" transform="translate(883,490)"/>
    <path d="M0 0 C0.66 0.33 1.32 0.66 2 1 C1.88637738 2.4800841 1.75877092 3.95910074 1.625 5.4375 C1.52058594 6.67306641 1.52058594 6.67306641 1.4140625 7.93359375 C1.27742187 8.61550781 1.14078125 9.29742187 1 10 C0.01 10.495 0.01 10.495 -1 11 C-2.23076923 4.6 -2.23076923 4.6 -1.0625 1.5625 C-0.711875 1.046875 -0.36125 0.53125 0 0 Z " fill="#0B090B" transform="translate(880,498)"/>
    <path d="M0 0 C2 3 2 3 1.625 6.1875 C1.41875 7.115625 1.2125 8.04375 1 9 C0.67 8.34 0.34 7.68 0 7 C-0.66 7 -1.32 7 -2 7 C-2.6875 5.1875 -2.6875 5.1875 -3 3 C-1.5625 1.25 -1.5625 1.25 0 0 Z " fill="#070807" transform="translate(730,1007)"/>
    <path d="M0 0 C0.66 0 1.32 0 2 0 C0.9024777 2.99324263 0.32317108 3.84610901 -2.625 5.25 C-3.40875 5.4975 -4.1925 5.745 -5 6 C-5.33 4.68 -5.66 3.36 -6 2 C-4.7934375 1.7834375 -4.7934375 1.7834375 -3.5625 1.5625 C-1.07896294 1.25864751 -1.07896294 1.25864751 0 0 Z " fill="#060807" transform="translate(1244,948)"/>
    <path d="" fill="#000000" transform="translate(0,0)"/>
    <path d="" fill="#000000" transform="translate(0,0)"/>
    <path d="" fill="#000000" transform="translate(0,0)"/>
    <path d="" fill="#000000" transform="translate(0,0)"/>
    <path d="" fill="#000000" transform="translate(0,0)"/>
</svg>
